PathFileType	4	(X/Y/Z)	s07c0303.trc
DataRate	CameraRate	NumFrames	NumMarkers	Units	OrigDataRate	OrigDataStartFrame	OrigNumFrames
200	200	6	48	mm	200	750	2000
Frame#	Time	racr			lacr			c7			jug			rlel			rdr			llel			ldr			s2			lic			ric			lasi			rasi			rpsi			lpsi			rgt			lgt			rth1			rth2			rth3			rth4			rlfc			rmfc			rsh1			rsh2			rsh3			rsh4			rlmal			rcal			rtoe			rmt5			lth1			lth2			lth4			lth3			llfc			lmfc			lsh1			lsh2			lsh3			lsh4			llmal			lcal			ltoe			lmt5			SBIKE			LBIKE			RBIKE			
		X1	Y1	Z1	X2	Y2	Z2	X3	Y3	Z3	X4	Y4	Z4	X5	Y5	Z5	X6	Y6	Z6	X7	Y7	Z7	X8	Y8	Z8	X9	Y9	Z9	X10	Y10	Z10	X11	Y11	Z11	X12	Y12	Z12	X13	Y13	Z13	X14	Y14	Z14	X15	Y15	Z15	X16	Y16	Z16	X17	Y17	Z17	X18	Y18	Z18	X19	Y19	Z19	X20	Y20	Z20	X21	Y21	Z21	X22	Y22	Z22	X23	Y23	Z23	X24	Y24	Z24	X25	Y25	Z25	X26	Y26	Z26	X27	Y27	Z27	X28	Y28	Z28	X29	Y29	Z29	X30	Y30	Z30	X31	Y31	Z31	X32	Y32	Z32	X33	Y33	Z33	X34	Y34	Z34	X35	Y35	Z35	X36	Y36	Z36	X37	Y37	Z37	X38	Y38	Z38	X39	Y39	Z39	X40	Y40	Z40	X41	Y41	Z41	X42	Y42	Z42	X43	Y43	Z43	X44	Y44	Z44	X45	Y45	Z45	X46	Y46	Z46	X47	Y47	Z47	X48	Y48	Z48	
750	3.7500	760.934946	1379.479957	-51.709243	763.654299	1445.411630	-352.422367	752.153329	1468.307771	-192.920353	699.386536	1330.905134	-230.654042	533.377455	1101.600076	35.363807	720.400707	916.113911	-71.323811	611.150795	1161.176365	-506.507492	726.086865	905.159034	-419.650828	156.529087	1298.724595	-282.991524	330.330783	1327.954736	-407.715020	322.301318	1276.672041	-123.955958	337.287408	1243.154556	-391.226685	329.194131	1232.379695	-141.520236	190.152793	1326.286927	-227.132977	205.883390	1342.556326	-333.627916	232.974446	1176.039226	-93.637227	246.467113	1180.652742	-456.390469	300.499675	1025.641409	-81.748552	343.641787	949.102195	-89.086973	345.743861	863.828794	-88.180291	376.340119	959.696481	-102.250111	377.258287	731.200360	-116.453658	360.871741	714.991085	-215.901380	319.092725	599.827610	-83.315122	307.439208	512.379313	-99.754271	258.807235	441.224048	-92.238676	322.683687	509.525183	-137.161829	202.934616	312.589291	-84.794110	133.539082	272.151604	-110.988059	423.228975	238.920990	-126.228825	344.940437	209.227558	-55.293864	300.126459	1066.871195	-456.408202	365.395240	1008.287990	-447.960837	393.234460	1026.749472	-434.552206	392.763972	923.598924	-443.771478	449.890636	754.964455	-411.764768	430.932414	743.601290	-313.015135	313.773831	685.802252	-426.853366	249.422137	632.543800	-405.641664	160.570913	615.359027	-410.059742	254.412245	633.214026	-363.985554	35.563551	563.972555	-406.193825	-39.457129	583.528563	-369.914664	148.997852	364.432358	-360.403471	74.985167	402.177799	-421.862245	-260.498860	962.310174	-235.551517	-83.295108	79.166232	-435.962684	-83.236656	78.876376	-38.633736	
751	3.7550	762.703299	1380.547045	-54.646156	761.888315	1448.173431	-355.543642	751.274792	1472.036679	-195.404108	700.650587	1334.351923	-234.796903	535.823374	1102.898449	36.789719	720.479625	915.783318	-70.677102	611.894068	1160.832151	-507.086419	726.351846	905.134819	-419.599666	156.778432	1294.506280	-279.706522	328.858436	1326.583636	-405.884852	325.006406	1272.117345	-122.868323	336.835149	1241.677789	-390.245354	331.520722	1227.748590	-140.518397	190.758232	1321.847456	-223.930880	205.179868	1339.362680	-330.391261	235.047677	1170.505336	-92.494585	246.595036	1178.652212	-455.256671	299.147314	1018.558614	-81.560020	340.279929	941.149322	-89.543903	340.209483	855.686273	-88.972342	373.212357	950.661947	-103.145746	368.976910	723.138821	-117.791246	354.595147	706.347004	-213.845674	312.080975	591.660181	-83.600557	300.621345	504.059453	-100.385742	252.516656	432.606638	-91.942610	315.239802	501.175980	-137.794808	196.874207	303.583611	-84.206921	127.353981	263.858132	-109.523765	416.863273	229.383002	-126.560648	338.793839	200.102071	-55.268943	303.111014	1066.447897	-455.995723	369.834488	1009.263796	-447.975635	397.027164	1028.411283	-435.101959	399.380403	925.426903	-444.497528	459.623129	757.992298	-413.810867	441.377006	746.134284	-314.941316	323.280420	689.550810	-427.432400	258.366718	637.111793	-405.468528	169.394368	620.935822	-409.823415	263.338891	638.898700	-363.876083	43.585890	572.762890	-406.454590	-30.077035	592.910135	-368.791047	155.541130	372.051391	-360.466984	81.716973	410.705545	-421.818441	-260.442236	962.237901	-235.812009	-83.216852	79.112225	-435.976446	-83.206158	78.865818	-38.615111	
752	3.7600	764.515949	1382.176138	-58.078477	760.005918	1451.176905	-359.459246	750.212301	1475.289606	-198.459746	702.363336	1336.968246	-238.904750	538.573359	1104.919510	38.268341	720.482872	915.808951	-70.207248	612.376917	1160.800945	-507.712897	726.626614	905.138040	-419.613455	157.020596	1289.998677	-276.234042	327.288362	1325.422424	-404.037452	327.683865	1267.664461	-121.718222	336.464098	1240.414190	-389.062871	333.944655	1223.144592	-139.354992	191.385286	1317.540766	-220.398100	204.272858	1335.885288	-326.949868	237.417306	1164.742870	-91.147719	246.907958	1176.770420	-454.114138	297.858166	1011.128308	-81.573235	336.906064	932.846233	-89.833372	334.607195	847.323295	-89.603467	369.905554	941.786652	-103.620903	360.376085	715.406506	-118.757621	344.722595	698.659030	-214.240045	304.655877	583.593966	-84.243012	293.132255	496.120238	-100.887305	245.531561	424.326501	-91.678360	307.481032	493.275722	-138.467918	189.788484	296.018089	-82.509141	120.566686	255.957801	-108.048760	409.882043	220.658155	-127.187778	332.196019	191.627493	-55.466751	306.498225	1066.268097	-455.301989	374.388484	1010.768481	-448.360589	401.548525	1030.569165	-436.062218	406.162234	927.660828	-445.606901	470.118314	761.909692	-415.780320	452.920276	750.154869	-316.832230	333.717550	694.199112	-428.145088	268.433800	642.393381	-405.898114	179.378895	626.871897	-409.930712	273.488041	644.556669	-364.233789	53.066621	580.570950	-406.125151	-20.017129	602.074270	-368.690868	162.357608	379.090264	-361.120085	89.472356	418.478645	-422.168041	-260.491513	962.185726	-236.033688	-83.204109	79.083039	-435.981426	-83.243647	78.814441	-38.575017	
753	3.7650	766.281017	1384.305227	-61.882295	757.881046	1454.253888	-363.644756	749.184352	1478.732442	-202.285696	703.700983	1339.841346	-243.364986	541.690100	1107.521729	39.646118	720.587169	916.060542	-69.885171	612.708138	1160.978667	-508.159424	726.902022	905.168092	-419.691555	157.141325	1285.321916	-272.535653	325.569877	1324.415121	-402.241552	330.330685	1263.320177	-120.448755	336.192793	1239.389113	-387.744548	336.389395	1218.407129	-138.010413	191.425203	1313.290461	-217.014835	202.530579	1332.251166	-322.926148	239.810976	1158.769106	-89.899232	247.251594	1175.031459	-452.785171	296.806349	1003.925150	-81.118842	333.563060	924.560165	-90.006233	329.007359	839.011003	-90.275108	366.595520	932.656682	-104.087512	351.932128	707.682053	-119.873694	332.719285	691.581596	-217.144967	296.716691	576.318804	-84.566241	285.230721	488.787685	-101.134993	237.990962	416.851511	-91.321065	298.928396	485.908152	-138.825135	182.657002	288.695976	-81.482424	113.272454	248.817429	-106.578915	402.270290	212.235202	-127.876823	325.086743	183.735315	-55.571649	309.631083	1066.051825	-454.939581	379.062227	1012.180013	-448.592306	406.342065	1033.602164	-439.150662	413.017551	930.138148	-446.544509	481.365143	766.577754	-417.836683	465.042354	754.649362	-318.720114	344.922710	699.832020	-429.069342	279.439210	648.144547	-406.794264	190.222072	633.416963	-410.268661	284.732259	649.638819	-365.273269	64.111200	588.088400	-406.113408	-8.952804	611.399799	-368.217919	169.700783	384.721772	-360.921433	97.492351	425.788834	-422.238320	-260.593271	962.188057	-236.156215	-83.215419	79.092691	-435.962816	-83.251235	78.810544	-38.598041	
754	3.7700	768.072088	1386.960096	-66.203340	755.595200	1457.449162	-368.002880	748.353692	1482.258414	-206.519236	704.696693	1342.907886	-247.915896	545.197659	1110.515996	40.809359	721.089808	916.360357	-69.649165	612.851707	1161.302000	-508.682146	727.168091	905.225392	-419.816446	157.359684	1280.474681	-268.658300	323.714194	1323.515759	-400.294202	332.971842	1259.175491	-119.153202	335.951273	1238.492498	-386.421887	338.911033	1213.678792	-136.569698	192.057197	1308.399660	-213.643314	201.362161	1328.752302	-319.001067	242.402794	1152.742327	-88.518474	247.668198	1173.393375	-451.389642	295.758268	996.997496	-80.257191	330.248419	916.664639	-90.069912	323.537620	831.007236	-90.768102	363.441309	923.697437	-105.134401	343.219612	700.941054	-120.507826	324.216894	684.600945	-214.330770	288.254552	569.674956	-84.478417	276.832445	482.034671	-101.134332	230.027937	409.958927	-90.860869	290.107906	479.415260	-139.001769	175.053488	282.468909	-79.888353	105.594201	242.329318	-105.637011	394.303396	204.126947	-127.978237	317.260064	176.091148	-55.591918	312.689408	1065.955201	-454.958685	383.881463	1014.088649	-450.360689	410.799792	1036.411148	-441.622282	420.171431	933.137503	-448.335559	493.410593	771.932136	-419.771405	478.109756	759.889142	-320.219578	356.761982	703.214323	-424.921320	291.215282	654.466877	-408.167062	201.807273	640.010330	-410.820828	297.050086	655.643310	-366.648893	76.340464	595.144536	-406.331556	3.751049	620.258798	-368.225084	177.163417	389.556532	-360.236643	106.628211	432.909775	-422.952731	-260.758735	962.159617	-236.205402	-83.240893	79.094452	-435.958281	-83.239620	78.792020	-38.608839	
755	3.7750	769.842371	1389.987177	-70.720291	752.989094	1460.826085	-372.582891	747.602182	1485.833045	-210.769855	705.284625	1346.119565	-252.256936	548.780709	1113.845075	41.945094	721.340529	916.900968	-68.861297	612.693626	1161.822260	-509.338164	727.414919	905.310422	-419.957943	157.803901	1275.326222	-264.825742	321.661513	1322.782141	-398.386776	335.674182	1255.288214	-117.787157	335.725980	1237.717772	-385.166950	341.431366	1209.084169	-135.087214	193.921626	1302.366882	-211.917883	200.278921	1324.894355	-315.046404	245.104876	1146.935190	-87.109091	248.001937	1171.881145	-449.919971	294.643861	990.768466	-79.282573	326.934540	909.420174	-89.880140	317.965703	823.948104	-91.175257	360.037459	915.732241	-105.269075	334.490131	694.764790	-120.408314	313.650148	678.510319	-214.026517	279.689165	563.656423	-84.117503	268.362131	476.068620	-100.700003	221.721594	403.863042	-90.267000	281.582471	473.491505	-138.672660	167.798458	274.867987	-81.202742	97.467782	236.738304	-105.123136	385.963668	196.481872	-127.702428	308.013853	168.405301	-56.169721	315.629509	1066.015703	-455.321930	388.617186	1016.521010	-452.266830	414.982375	1039.577112	-443.680914	427.449198	936.602025	-450.390610	505.714805	778.275233	-422.224957	491.485169	765.796160	-321.991111	369.159285	709.670189	-426.270204	303.455465	661.137311	-409.766519	214.340771	646.484973	-411.207031	309.901259	661.394832	-368.201710	89.379832	601.906969	-406.784907	17.476731	628.654504	-368.297846	185.259652	393.619505	-359.956776	115.652637	438.778712	-422.738322	-260.913592	962.144981	-236.253655	-83.282925	79.096125	-435.975156	-83.263204	78.809681	-38.585731	
